<?xml version="1.0" encoding="UTF-8" standalone="no"?><!DOCTYPE svg PUBLIC "-//W3C//DTD SVG 1.1//EN" "http://www.w3.org/Graphics/SVG/1.1/DTD/svg11.dtd"><svg width="100%" height="100%" viewBox="0 0 1920 1080" version="1.1" xmlns="http://www.w3.org/2000/svg" xmlns:xlink="http://www.w3.org/1999/xlink" xml:space="preserve" xmlns:serif="http://www.serif.com/" style="fill-rule:evenodd;clip-rule:evenodd;stroke-linecap:round;stroke-linejoin:round;stroke-miterlimit:1.5;"><rect x="0" y="0" width="1920" height="1080" style="fill:#fff;"/><g><rect x="-0" y="0" width="447.761" height="1080" style="fill:#f8f5f4;"/><g><rect x="-0" y="0" width="84" height="84" style="fill:#282925;"/><path d="M0,84l447.761,0" style="fill:none;stroke:#ababab;stroke-width:1px;"/></g><path d="M404.529,138.718c0,-3.6 -2.923,-6.523 -6.523,-6.523l-348.252,0c-3.6,0 -6.523,2.923 -6.523,6.523l0,52.375c0,3.6 2.923,6.523 6.523,6.523l348.252,-0c3.6,-0 6.523,-2.923 6.523,-6.523l0,-52.375Z" style="fill:#7ea849;"/><rect x="84" y="241.126" width="163.583" height="21.417" style="fill:#d1d1d1;"/><rect x="120.507" y="33.036" width="163.583" height="21.417" style="fill:#d1d1d1;"/><rect x="76.699" y="154.197" width="254.851" height="21.417" style="fill:#fff;fill-opacity:0.28;"/><rect x="84" y="350.16" width="185.001" height="21.417" style="fill:#d1d1d1;"/><rect x="0" y="284.934" width="407.24" height="44.782" style="fill:#282925;"/><rect x="84" y="296.617" width="234.65" height="21.417" style="fill:#d1d1d1;"/><rect x="84" y="409.545" width="129.51" height="21.417" style="fill:#d1d1d1;"/></g><g><g><rect x="490.732" y="124.09" width="658.362" height="900.792" style="fill:#f8f5f4;stroke:#d3d3d3;stroke-width:7.16px;"/><rect x="1183.88" y="124.09" width="685.372" height="244.806" style="fill:#f8f5f4;stroke:#d3d3d3;stroke-width:7.16px;"/><rect x="1183.88" y="399.794" width="685.372" height="225.792" style="fill:#f8f5f4;stroke:#d3d3d3;stroke-width:7.16px;"/><rect x="1183.88" y="651.73" width="685.372" height="373.151" style="fill:#f8f5f4;stroke:#d3d3d3;stroke-width:7.16px;"/></g><path d="M1920,84l-1472.24,-0" style="fill:none;stroke:#ababab;stroke-width:1px;"/><circle cx="1843.94" cy="41.255" r="25.312" style="fill-opacity:0.16;"/><g><g><text x="612.247px" y="587.84px" style="font-family:'Montserrat-Bold', 'Montserrat';font-weight:700;font-size:36px;fill:#474747;">Mitarbeit<tspan x="781.915px " y="587.84px ">e</tspan>r aus<tspan x="890.995px 924.115px " y="587.84px 587.84px ">wä</tspan>hlen</text><g id="arrow-pointer-solid.svg" opacity="0.4"><path d="M799.913,464.687l-0,46.35c-0,1.525 1.237,2.75 2.75,2.75c0.787,-0 1.55,-0.338 2.075,-0.938l10.325,-11.812l7.262,14.537c0.988,1.975 3.388,2.775 5.363,1.788c1.975,-0.988 2.775,-3.388 1.787,-5.363l-7.087,-14.212l14.762,-0c1.525,-0 2.763,-1.238 2.763,-2.763c-0,-0.787 -0.338,-1.537 -0.925,-2.062l-34.25,-30.438c-0.538,-0.475 -1.213,-0.737 -1.925,-0.737c-1.6,-0 -2.9,1.3 -2.9,2.9Z" style="fill-rule:nonzero;"/></g></g><g><g transform="matrix(36,0,0,36,1666.97,895.01)"></g><text x="1386.17px" y="895.01px" style="font-family:'Montserrat-Bold', 'Montserrat';font-weight:700;font-size:36px;fill:#474747;">Personendat<tspan x="1621.07px " y="895.01px ">e</tspan>n</text><g id="person-solid.svg" opacity="0.4"><clipPath id="_clip1"><rect x="1506.57" y="765.901" width="40" height="64"/></clipPath><g clip-path="url(#_clip1)"><path d="M1520.57,771.901c0,-3.292 2.709,-6 6,-6c3.292,-0 6,2.708 6,6c0,3.291 -2.708,6 -6,6c-3.291,-0 -6,-2.709 -6,-6Zm5,38l0,16c0,2.212 -1.787,4 -4,4c-2.212,-0 -4,-1.788 -4,-4l0,-27.888l-3.575,5.95c-1.137,1.888 -3.6,2.5 -5.487,1.363c-1.888,-1.138 -2.5,-3.6 -1.363,-5.488l7.288,-12.125c2.175,-3.612 6.075,-5.825 10.287,-5.825l3.713,0c4.212,0 8.112,2.213 10.287,5.825l7.288,12.125c1.137,1.888 0.525,4.35 -1.363,5.488c-1.887,1.137 -4.35,0.525 -5.487,-1.363l-3.588,-5.95l0,27.888c0,2.212 -1.787,4 -4,4c-2.212,-0 -4,-1.788 -4,-4l0,-16l-2,-0Z" style="fill-rule:nonzero;"/></g></g></g><g><g transform="matrix(36,0,0,36,1679.49,303.202)"></g><text x="1373.64px" y="303.202px" style="font-family:'Montserrat-Bold', 'Montserrat';font-weight:700;font-size:36px;fill:#474747;">Nächst<tspan x="1502.19px " y="303.202px ">e</tspan> Schritt<tspan x="1657.82px " y="303.202px ">e</tspan></text><g id="route-solid.svg" opacity="0.4"><path d="M1558.57,194.493c0,6.275 -7.387,15.637 -10.575,19.375c-0.475,0.55 -1.175,0.762 -1.812,0.625l-11.613,-0c-2.212,-0 -4,1.787 -4,4c0,2.212 1.788,4 4,4l12,-0c6.625,-0 12,5.375 12,12c0,6.625 -5.375,12 -12,12l-34.55,-0c1.088,-1.238 2.413,-2.825 3.75,-4.6c0.788,-1.05 1.6,-2.2 2.375,-3.4l28.425,-0c2.213,-0 4,-1.788 4,-4c0,-2.213 -1.787,-4 -4,-4l-12,-0c-6.625,-0 -12,-5.375 -12,-12c0,-6.625 5.375,-12 12,-12l4.975,-0c-2.625,-3.938 -4.975,-8.463 -4.975,-12c0,-6.625 5.375,-12 12,-12c6.625,-0 12,5.375 12,12Zm-49.362,49.137c-0.475,0.538 -0.9,1.013 -1.263,1.413l-0.225,0.25l-0.025,-0.025c-0.75,0.575 -1.825,0.5 -2.5,-0.225c-3.15,-3.425 -10.625,-12.238 -10.625,-18.55c0,-6.625 5.375,-12 12,-12c6.625,-0 12,5.375 12,12c0,3.75 -2.637,8.375 -5.437,12.237c-1.338,1.838 -2.713,3.5 -3.85,4.813l-0.075,0.087Zm1.362,-17.137c0,-2.195 -1.806,-4 -4,-4c-2.194,-0 -4,1.805 -4,4c0,2.194 1.806,4 4,4c2.194,-0 4,-1.806 4,-4Zm36,-28c2.194,-0 4,-1.806 4,-4c0,-2.195 -1.806,-4 -4,-4c-2.194,-0 -4,1.805 -4,4c0,2.194 1.806,4 4,4Z" style="fill-rule:nonzero;"/></g></g><g><g transform="matrix(36,0,0,36,1601.32,569.41)"></g><text x="1451.81px" y="569.41px" style="font-family:'Montserrat-Bold', 'Montserrat';font-weight:700;font-size:36px;fill:#474747;">Prüf<tspan x="1529.93px " y="569.41px ">u</tspan>ng</text><g id="toggle-off-solid.svg" opacity="0.4"><path d="M1537.23,470.023c7.855,-0 14.222,6.367 14.222,14.222c0,7.856 -6.367,14.222 -14.222,14.222l-21.334,0c-7.855,0 -14.222,-6.366 -14.222,-14.222c0,-7.855 6.367,-14.222 14.222,-14.222l21.334,-0Zm21.333,14.222c0,-11.778 -9.555,-21.333 -21.333,-21.333l-21.334,-0c-11.777,-0 -21.333,9.555 -21.333,21.333c0,11.778 9.556,21.334 21.333,21.334l21.334,-0c11.778,-0 21.333,-9.556 21.333,-21.334Zm-42.667,10.667c5.852,-0 10.667,-4.815 10.667,-10.667c0,-5.851 -4.815,-10.666 -10.667,-10.666c-5.851,-0 -10.666,4.815 -10.666,10.666c-0,5.852 4.815,10.667 10.666,10.667Z" style="fill-rule:nonzero;"/></g></g></g></g></svg>